<?xml version="1.0" encoding="utf-8"?>
<!-- Generator: Adobe Illustrator 23.0.1, SVG Export Plug-In . SVG Version: 6.00 Build 0)  -->
<svg version="1.1" id="Layer_1" xmlns="http://www.w3.org/2000/svg" xmlns:xlink="http://www.w3.org/1999/xlink" x="0px" y="0px"
	 viewBox="0 0 500 500" style="enable-background:new 0 0 500 500;" xml:space="preserve">
<g>
	<path d="M74.3,493.5h351.4c-1.1-9-1.8-20.1-2.2-33.1c-0.2-7.7-0.4-16-0.4-24.8v-49.4c-14.7-6.8-25.2-13.1-27.6-17.4l27.6-25.1
		v-48.3c0-9.6,0.2-17.2,0.4-24.2c0.3-7.9,0.8-15.1,1.8-23.6c-14.7,1.7-28.6,2.2-48.2,2.2H122.9c-20.1,0-33.6-0.5-48.2-2.2
		c1.7,16.4,2.2,28.5,2.2,47.8v140.2C76.8,462.4,75.9,478.8,74.3,493.5z M160.6,314.8h180v24.1h-180V314.8z M160.6,397h180v26.9h-180
		V397z"/>
</g>
<path d="M479.9,152.3v73.1H20.1v-73.1c5.7,0.6,11.5,1.1,17.8,1.4V95c0-17.4-1.1-35.5-2.7-53h89.1c-1.6,15.4-2.2,27.6-2.2,52.5v59.9
	h84.4V64.2c0-20.1-1.1-39.7-3.7-57.8h93.3c-2.7,18.5-3.8,37.1-3.8,57.8v90.2h85.5V93.7c0-19-1.1-34.9-2.7-51.9h89.5
	c-1.6,18.6-2.6,35-2.6,52.5v59.3C468.5,153.3,474.1,152.9,479.9,152.3z"/>
</svg>
